# xmcd CD database file
#
# Track frame offsets:
#	150
#	16712
#	32562
#	50956
#	68039
#	83318
#	95687
#	107628
#	116147
#	137868
#	162788
#	181741
#	191239
#	203499
#	223470
#
# Disc length: 3208 seconds
#
# Revision: 0
# Processed by: cddbd v1.5.2PL0 Copyright (c) Steve Scherf et al.
# Submitted via: CDex 1.81
#
DISCID=cf0c860f
DTITLE=Marcelo torres - Jazz Friends
DYEAR=1900
DGENRE=Jazz
TTITLE0=Ain't Misbehavin
TTITLE1=Bourbon Street Parade
TTITLE2=What A Wonderful Word
TTITLE3=All of Me
TTITLE4=12th Street Rag
TTITLE5=Do You Know What it means to Miss New Olrleans
TTITLE6=Honeysuckle Rose - Sweet Sue Just You
TTITLE7=Sugar Blues
TTITLE8=St. James Infirmary
TTITLE9=I Can't give You Anything But Love
TTITLE10=My Way
TTITLE11=Street Georgia Brown
TTITLE12=Summertime
TTITLE13=When the Saints Go Marching In
TTITLE14=Take The "A" Train
EXTD=
EXTT0=
EXTT1=
EXTT2=
EXTT3=
EXTT4=
EXTT5=
EXTT6=
EXTT7=
EXTT8=
EXTT9=
EXTT10=
EXTT11=
EXTT12=
EXTT13=
EXTT14=
PLAYORDER=
